<svg xmlns="http://www.w3.org/2000/svg" version="1.1" xmlns:xlink="http://www.w3.org/1999/xlink" xmlns:svgjs="http://svgjs.dev/svgjs" width="1500" height="1500" viewBox="0 0 1500 1500"><rect width="1500" height="1500" fill="#000000"></rect><g transform="matrix(0.6666666666666666,0,0,0.6666666666666666,249.39393939393938,438.5856950067477)"><svg viewBox="0 0 396 247" data-background-color="#ffffff" preserveAspectRatio="xMidYMid meet" height="935" width="1500" xmlns="http://www.w3.org/2000/svg" xmlns:xlink="http://www.w3.org/1999/xlink"><g id="tight-bounds" transform="matrix(1,0,0,1,0.2400000000000091,-0.09999999999999432)"><svg viewBox="0 0 395.52 247.2" height="247.2" width="395.52"><g><svg></svg></g><g><svg viewBox="0 0 395.52 247.2" height="247.2" width="395.52"><mask id="f4bafa82-7542-4433-b0a9-ccc0662aa410"><rect width="640" height="400" fill="white"></rect><g transform="matrix(1,0,0,1,39.55199999999999,105.18973869741842)"><svg viewBox="0 0 316.416 36.820522605163156" height="36.820522605163156" width="316.416"><g><svg viewBox="0 0 316.416 36.820522605163156" height="36.820522605163156" width="316.416"><g><svg viewBox="0 0 316.416 36.820522605163156" height="36.820522605163156" width="316.416"><g><svg viewBox="0 0 316.416 36.820522605163156" height="36.820522605163156" width="316.416"><g id="SvgjsG1149"><svg viewBox="0 0 316.416 36.820522605163156" height="36.820522605163156" width="316.416" id="SvgjsSvg1148"><g><svg viewBox="0 0 316.416 36.820522605163156" height="36.820522605163156" width="316.416"><g transform="matrix(1,0,0,1,0,0)"><svg width="316.416" viewBox="-5.15 -40.95 382.52 45.400000000000006" height="36.820522605163156" data-palette-color="#010c80"><path d="M38.95-33.3Q41-33.3 41-32L41-32Q41-31.65 40.95-31.5L40.95-31.5Q40.8-31 40.5-30.73 40.2-30.45 39.65-30.1L39.65-30.1Q38.9-29.65 38.4-29.1 37.9-28.55 37.55-27.4L37.55-27.4 31.35-5.2Q30.5-2.2 29.23-1 27.95 0.2 25.7 0.2L25.7 0.2Q23.7 0.2 22.38-0.98 21.05-2.15 19.9-4.6L19.9-4.6 12.35-20.5 8.15-5.9Q8-5.25 8-4.75L8-4.75Q8-4.1 8.22-3.68 8.45-3.25 8.85-2.8L8.85-2.8Q9.4-2.15 9.4-1.7L9.4-1.7Q9.4-1.4 9.35-1.25L9.35-1.25Q9.15-0.55 8.45-0.28 7.75 0 6.35 0L6.35 0 0.9 0Q-1.15 0-1.15-1.3L-1.15-1.3Q-1.15-1.65-1.1-1.8L-1.1-1.8Q-0.95-2.3-0.65-2.58-0.35-2.85 0.2-3.2L0.2-3.2Q0.95-3.65 1.45-4.2 1.95-4.75 2.3-5.9L2.3-5.9 8.65-28.35 7.85-30Q7.35-31 7.35-31.75L7.35-31.75Q7.35-33.3 9.35-33.3L9.35-33.3 16.75-33.3Q18.35-33.3 19.18-32.58 20-31.85 20.95-30L20.95-30 28.25-15.35 31.7-27.4Q31.85-28.1 31.85-28.55L31.85-28.55Q31.85-29.2 31.63-29.63 31.4-30.05 31-30.5L31-30.5Q30.45-31.15 30.45-31.6L30.45-31.6Q30.45-31.9 30.5-32.05L30.5-32.05Q30.7-32.75 31.4-33.02 32.1-33.3 33.5-33.3L33.5-33.3 38.95-33.3ZM55.7-26.45Q62.5-26.45 65.72-23.7 68.95-20.95 68.95-16.5L68.95-16.5Q68.95-15 68.55-13.15L68.55-13.15Q67.6-9.05 65-5.98 62.4-2.9 58.62-1.23 54.85 0.45 50.45 0.45L50.45 0.45Q43.5 0.45 40.17-2.33 36.85-5.1 36.85-9.7L36.85-9.7Q36.85-11.25 37.25-13.15L37.25-13.15Q38.2-17.05 40.87-20.08 43.55-23.1 47.42-24.78 51.3-26.45 55.7-26.45L55.7-26.45ZM55.55-22Q54.5-22 53.32-20.13 52.15-18.25 50.55-13.05L50.55-13.05Q48.95-7.85 48.95-5.75L48.95-5.75Q48.95-4.65 49.3-4.28 49.65-3.9 50.25-3.9L50.25-3.9Q51.3-3.8 52.42-5.7 53.55-7.6 55.25-13.1L55.25-13.1Q56.8-17.95 56.8-20.15L56.8-20.15Q56.8-21.2 56.47-21.6 56.15-22 55.55-22L55.55-22ZM103.15-16.75L100.1-6.9Q100-6.7 100-6.3L100-6.3Q100-5.95 100.17-5.75 100.35-5.55 100.65-5.55L100.65-5.55Q101.25-5.55 101.67-6.08 102.1-6.6 102.25-6.6L102.25-6.6Q102.5-6.6 102.65-6.28 102.8-5.95 102.8-5.5L102.8-5.5Q102.85-4.05 101.85-2.68 100.85-1.3 98.92-0.43 97 0.45 94.3 0.45L94.3 0.45Q91 0.45 89.05-1.07 87.1-2.6 87.05-5.15L87.05-5.15Q87.05-7 87.95-9.3L87.95-9.3 90.7-16.5Q90.95-17.15 90.95-17.55L90.95-17.55Q90.95-18.2 90.52-18.57 90.1-18.95 89.5-18.95L89.5-18.95Q88.4-18.95 87.4-17.93 86.4-16.9 85.95-15.4L85.95-15.4 82.85-5.2Q82.65-4.65 82.65-4.15L82.65-4.15Q82.65-3.55 82.9-3.18 83.15-2.8 83.6-2.4L83.6-2.4Q83.95-2.1 84.1-1.85 84.25-1.6 84.15-1.25L84.15-1.25Q83.95-0.6 83.2-0.3 82.45 0 80.85 0L80.85 0 69.45 0Q68.15 0 67.57-0.43 67-0.85 67.15-1.55L67.15-1.55Q67.35-2.15 68.2-2.6L68.2-2.6Q68.95-3 69.45-3.55 69.95-4.1 70.3-5.3L70.3-5.3 74.75-19.75Q74.85-20 74.85-20.45L74.85-20.45Q74.85-21 74.62-21.3 74.4-21.6 73.9-22.05L73.9-22.05Q73.4-22.45 73.2-22.75 73-23.05 73.15-23.55L73.15-23.55Q73.45-24.7 76.3-25.58 79.15-26.45 82.25-26.45L82.25-26.45Q84.75-26.45 86.2-25.08 87.65-23.7 87.5-21.25L87.5-21.25Q89.55-24.2 91.85-25.33 94.15-26.45 96.85-26.45L96.85-26.45Q99.9-26.45 101.77-24.6 103.65-22.75 103.65-19.8L103.65-19.8Q103.65-18.25 103.15-16.75L103.15-16.75ZM127.29-25.8Q128.24-25.8 128.77-25.4 129.29-25 129.29-24.3L129.29-24.3Q129.29-24.1 129.19-23.6L129.19-23.6Q128.54-21.4 126.19-21.4L126.19-21.4 123.29-21.4 119.54-9.05Q119.29-8.3 119.29-7.5L119.29-7.5Q119.29-6.6 119.79-6.25 120.29-5.9 121.19-5.9L121.19-5.9Q121.99-5.9 123.19-6.1L123.19-6.1Q123.79-6.25 124.24-6.25L124.24-6.25Q124.59-6.25 124.77-6.03 124.94-5.8 124.94-5.45L124.94-5.45Q124.99-4.45 123.47-3.03 121.94-1.6 119.34-0.58 116.74 0.45 113.59 0.45L113.59 0.45Q110.19 0.45 108.14-1.1 106.09-2.65 106.09-5.35L106.09-5.35Q106.09-6.6 106.49-7.75L106.49-7.75 109.69-17.65Q109.94-18.5 109.94-19L109.94-19Q109.94-20 109.47-20.7 108.99-21.4 108.14-22.15L108.14-22.15Q107.39-22.85 107.09-23.33 106.79-23.8 106.94-24.45L106.94-24.45Q107.14-25.1 107.79-25.45 108.44-25.8 109.84-25.8L109.84-25.8 112.64-25.8 115.79-28.95Q117.44-30.6 118.82-31.25 120.19-31.9 122.39-31.9L122.39-31.9Q125.54-31.9 125.54-29.5L125.54-29.5Q125.54-28.75 125.34-28.1L125.34-28.1 124.64-25.8 127.29-25.8ZM144.29-26.45Q150.04-26.45 153.49-24.33 156.94-22.2 156.94-17.85L156.94-17.85Q156.94-16.2 156.34-14.1L156.34-14.1 154.29-7.2Q154.24-7 154.24-6.7L154.24-6.7Q154.24-5.9 154.89-5.9L154.89-5.9Q155.49-5.9 155.92-6.43 156.34-6.95 156.49-6.95L156.49-6.95Q156.74-6.95 156.92-6.6 157.09-6.25 157.09-5.8L157.09-5.8Q157.14-4.45 156.07-3.05 154.99-1.65 153.19-0.75 151.39 0.15 149.24 0.15L149.24 0.15Q146.64 0.15 144.79-0.8 142.94-1.75 142.24-3.6L142.24-3.6Q140.74-1.8 138.69-0.83 136.64 0.15 134.29 0.15L134.29 0.15Q131.64 0.15 129.84-0.88 128.04-1.9 127.17-3.53 126.29-5.15 126.29-6.95L126.29-6.95Q126.29-7.75 126.44-8.5L126.44-8.5Q127.24-11.95 129.92-13.7 132.59-15.45 136.29-15.45L136.29-15.45Q140.44-15.45 144.44-14.15L144.44-14.15 145.69-17.45Q146.34-19.55 146.34-20.7L146.34-20.7Q146.29-21.9 145.54-22.5 144.79-23.1 143.24-23.1L143.24-23.1Q143.54-22.3 143.54-21.45L143.54-21.45Q143.54-19.6 142.14-18.25 140.74-16.9 138.14-16.9L138.14-16.9Q135.69-16.9 134.32-17.98 132.94-19.05 132.94-20.65L132.94-20.65Q132.94-23.15 135.74-24.8 138.54-26.45 144.29-26.45L144.29-26.45ZM141.49-11.3Q140.09-11.3 139.22-10.23 138.34-9.15 138.34-7.9L138.34-7.9Q138.34-7.1 138.72-6.6 139.09-6.1 139.79-6.1L139.79-6.1Q140.44-6.1 141.22-6.63 141.99-7.15 142.34-8.2L142.34-8.2 143.39-11.15Q142.54-11.3 141.49-11.3L141.49-11.3ZM181.49-25.8Q182.44-25.8 182.96-25.4 183.49-25 183.49-24.3L183.49-24.3Q183.49-24.1 183.39-23.6L183.39-23.6Q182.74-21.4 180.39-21.4L180.39-21.4 177.49-21.4 173.74-9.05Q173.49-8.3 173.49-7.5L173.49-7.5Q173.49-6.6 173.99-6.25 174.49-5.9 175.39-5.9L175.39-5.9Q176.19-5.9 177.39-6.1L177.39-6.1Q177.99-6.25 178.44-6.25L178.44-6.25Q178.79-6.25 178.96-6.03 179.14-5.8 179.14-5.45L179.14-5.45Q179.19-4.45 177.66-3.03 176.14-1.6 173.54-0.58 170.94 0.45 167.79 0.45L167.79 0.45Q164.39 0.45 162.34-1.1 160.29-2.65 160.29-5.35L160.29-5.35Q160.29-6.6 160.69-7.75L160.69-7.75 163.89-17.65Q164.14-18.5 164.14-19L164.14-19Q164.14-20 163.66-20.7 163.19-21.4 162.34-22.15L162.34-22.15Q161.59-22.85 161.29-23.33 160.99-23.8 161.14-24.45L161.14-24.45Q161.34-25.1 161.99-25.45 162.64-25.8 164.04-25.8L164.04-25.8 166.84-25.8 169.99-28.95Q171.64-30.6 173.01-31.25 174.39-31.9 176.59-31.9L176.59-31.9Q179.74-31.9 179.74-29.5L179.74-29.5Q179.74-28.75 179.54-28.1L179.54-28.1 178.84-25.8 181.49-25.8ZM197.59-26.7Q203.94-26.7 206.79-24.68 209.64-22.65 209.64-19.5L209.64-19.5Q209.64-18.55 209.44-17.75L209.44-17.75Q208.69-14.45 205.26-13.03 201.84-11.6 197.19-11.6L197.19-11.6Q194.84-11.6 192.79-11.9L192.79-11.9Q192.74-9.3 194.19-8.25 195.64-7.2 198.24-7.2L198.24-7.2Q199.44-7.2 200.54-7.48 201.64-7.75 203.34-8.3L203.34-8.3Q204.74-8.8 205.24-8.8L205.24-8.8Q205.79-8.8 205.79-8.15L205.79-8.15Q205.84-6.4 204.49-4.48 203.14-2.55 200.49-1.2 197.84 0.15 194.09 0.15L194.09 0.15Q188.54 0.15 184.99-2.65 181.44-5.45 181.44-10.8L181.44-10.8Q181.44-12.3 181.84-14.3L181.84-14.3Q183.09-20.45 187.31-23.58 191.54-26.7 197.59-26.7L197.59-26.7ZM193.14-14.9Q193.34-14.85 193.69-14.85L193.69-14.85Q195.79-14.85 196.89-16.8 197.99-18.75 197.94-21.15L197.94-21.15Q197.89-22.55 197.14-22.55L197.14-22.55Q196.59-22.55 195.84-21.68 195.09-20.8 194.36-19.05 193.64-17.3 193.14-14.9L193.14-14.9ZM226.78-26.7Q229.83-26.7 232.13-25.83 234.43-24.95 235.71-23.43 236.98-21.9 236.98-20.05L236.98-20.05Q236.98-18.05 235.61-16.75 234.23-15.45 231.88-15.45L231.88-15.45Q229.48-15.45 228.13-16.68 226.78-17.9 226.78-20L226.78-20Q226.78-21 227.08-22.1L227.08-22.1Q224.98-21.55 223.36-19.93 221.73-18.3 221.18-15.65L221.18-15.65Q220.88-14.15 220.88-12.95L220.88-12.95Q220.88-10.25 222.38-8.85 223.88-7.45 226.68-7.45L226.68-7.45Q228.28-7.45 229.43-7.78 230.58-8.1 231.78-8.65L231.78-8.65Q232.78-9.15 233.23-9.15L233.23-9.15Q233.53-9.15 233.63-9.03 233.73-8.9 233.73-8.5L233.73-8.5Q233.78-6.65 232.21-4.63 230.63-2.6 227.86-1.23 225.08 0.15 221.63 0.15L221.63 0.15Q218.03 0.15 215.26-1.18 212.48-2.5 210.96-4.98 209.43-7.45 209.43-10.75L209.43-10.75Q209.43-12.3 209.83-14.2L209.83-14.2Q211.18-20.4 215.81-23.55 220.43-26.7 226.78-26.7L226.78-26.7ZM269.43-16.75L266.38-6.9Q266.28-6.7 266.28-6.3L266.28-6.3Q266.28-5.95 266.46-5.75 266.63-5.55 266.93-5.55L266.93-5.55Q267.53-5.55 267.96-6.08 268.38-6.6 268.53-6.6L268.53-6.6Q268.78-6.6 268.93-6.28 269.08-5.95 269.08-5.5L269.08-5.5Q269.13-4.05 268.13-2.68 267.13-1.3 265.21-0.43 263.28 0.45 260.58 0.45L260.58 0.45Q257.28 0.45 255.33-1.07 253.38-2.6 253.33-5.15L253.33-5.15Q253.33-7 254.23-9.3L254.23-9.3 256.98-16.5Q257.23-17.15 257.23-17.55L257.23-17.55Q257.23-18.2 256.81-18.57 256.38-18.95 255.78-18.95L255.78-18.95Q254.83-18.95 253.86-18.07 252.88-17.2 252.28-15.25L252.28-15.25 252.28-15.35 249.13-5.2Q248.98-4.6 248.98-4.15L248.98-4.15Q248.98-3.5 249.23-3.13 249.48-2.75 249.93-2.4L249.93-2.4Q250.28-2.05 250.43-1.83 250.58-1.6 250.48-1.25L250.48-1.25Q250.23-0.6 249.48-0.3 248.73 0 247.18 0L247.18 0 235.78 0Q234.48 0 233.88-0.43 233.28-0.85 233.48-1.55L233.48-1.55Q233.68-2.15 234.53-2.6L234.53-2.6Q235.28-3 235.78-3.55 236.28-4.1 236.63-5.3L236.63-5.3 244.23-30.25Q244.38-30.7 244.38-31L244.38-31Q244.38-31.55 244.11-31.9 243.83-32.25 243.38-32.6L243.38-32.6Q242.88-33 242.66-33.3 242.43-33.6 242.58-34.1L242.58-34.1Q242.88-35.25 245.73-36.1 248.58-36.95 251.68-36.95L251.68-36.95Q254.58-36.95 255.96-35.85 257.33-34.75 257.33-32.85L257.33-32.85Q257.33-31.75 256.98-30.7L256.98-30.7 254.28-21.9Q256.23-24.45 258.41-25.45 260.58-26.45 263.13-26.45L263.13-26.45Q266.18-26.45 268.06-24.6 269.93-22.75 269.93-19.8L269.93-19.8Q269.93-18.25 269.43-16.75L269.43-16.75ZM277.18-10.1Q279.18-10.1 280.55-8.75 281.93-7.4 281.93-5.45L281.93-5.45Q281.93-4.1 281.2-2.8 280.48-1.5 279.2-0.68 277.93 0.15 276.33 0.15L276.33 0.15Q274.38 0.15 273.03-1.2 271.68-2.55 271.63-4.5L271.63-4.5Q271.63-5.85 272.33-7.15 273.03-8.45 274.3-9.28 275.58-10.1 277.18-10.1L277.18-10.1ZM314.03-7.2Q313.93-6.8 313.93-6.65L313.93-6.65Q313.93-6.3 314.13-6.1 314.33-5.9 314.63-5.9L314.63-5.9Q315.23-5.9 315.65-6.43 316.08-6.95 316.23-6.95L316.23-6.95Q316.48-6.95 316.63-6.6 316.78-6.25 316.78-5.8L316.78-5.8Q316.83-4.45 315.75-3.05 314.68-1.65 312.88-0.75 311.08 0.15 308.98 0.15L308.98 0.15Q306.48 0.15 304.63-0.8 302.78-1.75 302.08-3.3L302.08-3.3Q300.73-1.55 298.98-0.7 297.23 0.15 295.28 0.15L295.28 0.15Q292.98 0.15 291-1 289.03-2.15 287.85-4.28 286.68-6.4 286.68-9.1L286.68-9.1Q286.68-13.65 288.4-17.68 290.13-21.7 293.23-24.18 296.33-26.65 300.28-26.65L300.28-26.65Q302.43-26.65 303.95-26.15 305.48-25.65 306.73-24.65L306.73-24.65 308.43-30.25Q308.58-30.7 308.58-31L308.58-31Q308.58-31.55 308.3-31.9 308.03-32.25 307.58-32.6L307.58-32.6Q307.08-33 306.85-33.3 306.63-33.6 306.78-34.1L306.78-34.1Q307.08-35.25 309.93-36.1 312.78-36.95 315.88-36.95L315.88-36.95Q318.78-36.95 320.15-35.85 321.53-34.75 321.53-32.85L321.53-32.85Q321.53-31.75 321.18-30.7L321.18-30.7 314.03-7.2ZM305.68-21.25Q304.88-21.95 303.93-21.95L303.93-21.95Q302.48-21.95 301.08-19.8 299.68-17.65 298.83-14.6 297.98-11.55 298.03-9.1L298.03-9.1Q298.03-6.35 299.83-6.35L299.83-6.35Q300.48-6.35 300.93-6.88 301.38-7.4 301.78-8.6L301.78-8.6 305.68-21.25ZM331.77-26.7Q338.12-26.7 340.97-24.68 343.82-22.65 343.82-19.5L343.82-19.5Q343.82-18.55 343.62-17.75L343.62-17.75Q342.87-14.45 339.45-13.03 336.02-11.6 331.37-11.6L331.37-11.6Q329.02-11.6 326.97-11.9L326.97-11.9Q326.92-9.3 328.37-8.25 329.82-7.2 332.42-7.2L332.42-7.2Q333.62-7.2 334.72-7.48 335.82-7.75 337.52-8.3L337.52-8.3Q338.92-8.8 339.42-8.8L339.42-8.8Q339.97-8.8 339.97-8.15L339.97-8.15Q340.02-6.4 338.67-4.48 337.32-2.55 334.67-1.2 332.02 0.15 328.27 0.15L328.27 0.15Q322.72 0.15 319.17-2.65 315.62-5.45 315.62-10.8L315.62-10.8Q315.62-12.3 316.02-14.3L316.02-14.3Q317.27-20.45 321.5-23.58 325.72-26.7 331.77-26.7L331.77-26.7ZM327.32-14.9Q327.52-14.85 327.87-14.85L327.87-14.85Q329.97-14.85 331.07-16.8 332.17-18.75 332.12-21.15L332.12-21.15Q332.07-22.55 331.32-22.55L331.32-22.55Q330.77-22.55 330.02-21.68 329.27-20.8 328.55-19.05 327.82-17.3 327.32-14.9L327.32-14.9ZM367.22-26.45Q369.87-26.45 371.62-24.55 373.37-22.65 373.37-19.35L373.37-19.35Q373.37-14.9 370.27-10.25 367.17-5.6 362.42-2.58 357.67 0.45 353.17 0.45L353.17 0.45Q348.87 0.45 346.2-1.3 343.52-3.05 343.52-6.3L343.52-6.3Q343.52-7.5 343.97-9L343.97-9 347.12-19.75Q347.22-20.15 347.22-20.35L347.22-20.35Q347.22-20.85 346.97-21.2 346.72-21.55 346.27-21.95L346.27-21.95Q345.52-22.6 345.52-23.1L345.52-23.1Q345.47-23.8 346.37-24.6 347.27-25.4 348.9-25.93 350.52-26.45 352.57-26.45L352.57-26.45Q355.92-26.45 357.8-24.83 359.67-23.2 359.67-20.6L359.67-20.6Q359.67-19.45 359.27-18.1L359.27-18.1 356.02-7.4Q355.87-6.95 355.87-6.65L355.87-6.65Q355.87-6 356.32-5.65 356.77-5.3 357.57-5.3L357.57-5.3Q358.67-5.3 360.15-6.28 361.62-7.25 363.07-9.08 364.52-10.9 365.42-13.4L365.42-13.4Q363.42-15.15 362.6-16.85 361.77-18.55 361.77-20.35L361.77-20.35Q361.77-22.9 363.17-24.68 364.57-26.45 367.22-26.45L367.22-26.45Z" opacity="1" transform="matrix(1,0,0,1,0,0)" fill="black" class="wordmark-text-0" id="SvgjsPath1147" stroke-width="7" stroke="black" stroke-linejoin="round"></path></svg></g></svg></g></svg></g></svg></g><g></g></svg></g></svg></g></svg></g></mask><g transform="matrix(1,0,0,1,39.55199999999999,105.18973869741842)"><svg viewBox="0 0 316.416 36.820522605163156" height="36.820522605163156" width="316.416"><g><svg viewBox="0 0 316.416 36.820522605163156" height="36.820522605163156" width="316.416"><g><svg viewBox="0 0 316.416 36.820522605163156" height="36.820522605163156" width="316.416"><g><svg viewBox="0 0 316.416 36.820522605163156" height="36.820522605163156" width="316.416"><g id="textblocktransform"><svg viewBox="0 0 316.416 36.820522605163156" height="36.820522605163156" width="316.416" id="textblock"><g><svg viewBox="0 0 316.416 36.820522605163156" height="36.820522605163156" width="316.416"><g transform="matrix(1,0,0,1,0,0)"><svg width="316.416" viewBox="-5.15 -40.95 382.52 45.400000000000006" height="36.820522605163156" data-palette-color="#010c80"><path d="M38.95-33.3Q41-33.3 41-32L41-32Q41-31.65 40.95-31.5L40.95-31.5Q40.8-31 40.5-30.73 40.2-30.45 39.65-30.1L39.65-30.1Q38.9-29.65 38.4-29.1 37.9-28.55 37.55-27.4L37.55-27.4 31.35-5.2Q30.5-2.2 29.23-1 27.95 0.2 25.7 0.2L25.7 0.2Q23.7 0.2 22.38-0.98 21.05-2.15 19.9-4.6L19.9-4.6 12.35-20.5 8.15-5.9Q8-5.25 8-4.75L8-4.75Q8-4.1 8.22-3.68 8.45-3.25 8.85-2.8L8.85-2.8Q9.4-2.15 9.4-1.7L9.4-1.7Q9.4-1.4 9.35-1.25L9.35-1.25Q9.15-0.55 8.45-0.28 7.75 0 6.35 0L6.35 0 0.9 0Q-1.15 0-1.15-1.3L-1.15-1.3Q-1.15-1.65-1.1-1.8L-1.1-1.8Q-0.95-2.3-0.65-2.58-0.35-2.85 0.2-3.2L0.2-3.2Q0.95-3.65 1.45-4.2 1.95-4.75 2.3-5.9L2.3-5.9 8.65-28.35 7.85-30Q7.35-31 7.35-31.75L7.35-31.75Q7.35-33.3 9.35-33.3L9.35-33.3 16.75-33.3Q18.35-33.3 19.18-32.58 20-31.85 20.95-30L20.95-30 28.25-15.35 31.7-27.4Q31.85-28.1 31.85-28.55L31.85-28.55Q31.85-29.2 31.63-29.63 31.4-30.05 31-30.5L31-30.5Q30.45-31.15 30.45-31.6L30.45-31.6Q30.45-31.9 30.5-32.05L30.5-32.05Q30.7-32.75 31.4-33.02 32.1-33.3 33.5-33.3L33.5-33.3 38.95-33.3ZM55.7-26.45Q62.5-26.45 65.72-23.7 68.95-20.95 68.95-16.5L68.95-16.5Q68.95-15 68.55-13.15L68.55-13.15Q67.6-9.05 65-5.98 62.4-2.9 58.62-1.23 54.85 0.45 50.45 0.45L50.45 0.45Q43.5 0.45 40.17-2.33 36.85-5.1 36.85-9.7L36.85-9.7Q36.85-11.25 37.25-13.15L37.25-13.15Q38.2-17.05 40.87-20.08 43.55-23.1 47.42-24.78 51.3-26.45 55.7-26.45L55.7-26.45ZM55.55-22Q54.5-22 53.32-20.13 52.15-18.25 50.55-13.05L50.55-13.05Q48.95-7.85 48.95-5.75L48.95-5.75Q48.95-4.65 49.3-4.28 49.65-3.9 50.25-3.9L50.25-3.9Q51.3-3.8 52.42-5.7 53.55-7.6 55.25-13.1L55.25-13.1Q56.8-17.95 56.8-20.15L56.8-20.15Q56.8-21.2 56.47-21.6 56.15-22 55.55-22L55.55-22ZM103.15-16.75L100.1-6.9Q100-6.7 100-6.3L100-6.3Q100-5.95 100.17-5.75 100.35-5.55 100.65-5.55L100.65-5.55Q101.25-5.55 101.67-6.08 102.1-6.6 102.25-6.6L102.25-6.6Q102.5-6.6 102.65-6.28 102.8-5.95 102.8-5.5L102.8-5.5Q102.85-4.05 101.85-2.68 100.85-1.3 98.92-0.43 97 0.45 94.3 0.45L94.3 0.45Q91 0.45 89.05-1.07 87.1-2.6 87.05-5.15L87.05-5.15Q87.05-7 87.95-9.3L87.95-9.3 90.7-16.5Q90.95-17.15 90.95-17.55L90.95-17.55Q90.95-18.2 90.52-18.57 90.1-18.95 89.5-18.95L89.5-18.95Q88.4-18.95 87.4-17.93 86.4-16.9 85.95-15.4L85.95-15.4 82.85-5.2Q82.65-4.65 82.65-4.15L82.65-4.15Q82.65-3.55 82.9-3.18 83.15-2.8 83.6-2.4L83.6-2.4Q83.95-2.1 84.1-1.85 84.25-1.6 84.15-1.25L84.15-1.25Q83.95-0.6 83.2-0.3 82.45 0 80.85 0L80.85 0 69.45 0Q68.15 0 67.57-0.43 67-0.85 67.15-1.55L67.15-1.55Q67.35-2.15 68.2-2.6L68.2-2.6Q68.95-3 69.45-3.55 69.95-4.1 70.3-5.3L70.3-5.3 74.75-19.75Q74.85-20 74.85-20.45L74.85-20.45Q74.85-21 74.62-21.3 74.4-21.6 73.9-22.05L73.9-22.05Q73.4-22.45 73.2-22.75 73-23.05 73.15-23.55L73.15-23.55Q73.45-24.7 76.3-25.58 79.15-26.45 82.25-26.45L82.25-26.45Q84.75-26.45 86.2-25.08 87.65-23.7 87.5-21.25L87.5-21.25Q89.55-24.2 91.85-25.33 94.15-26.45 96.85-26.45L96.85-26.45Q99.9-26.45 101.77-24.6 103.65-22.75 103.65-19.8L103.65-19.8Q103.65-18.25 103.15-16.75L103.15-16.75ZM127.29-25.8Q128.24-25.8 128.77-25.4 129.29-25 129.29-24.3L129.29-24.3Q129.29-24.1 129.19-23.6L129.19-23.6Q128.54-21.4 126.19-21.4L126.19-21.4 123.29-21.4 119.54-9.05Q119.29-8.3 119.29-7.5L119.29-7.5Q119.29-6.6 119.79-6.25 120.29-5.9 121.19-5.9L121.19-5.9Q121.99-5.9 123.19-6.1L123.19-6.1Q123.79-6.25 124.24-6.25L124.24-6.25Q124.59-6.25 124.77-6.03 124.94-5.8 124.94-5.45L124.94-5.45Q124.99-4.45 123.47-3.03 121.94-1.6 119.34-0.58 116.74 0.45 113.59 0.45L113.59 0.45Q110.19 0.45 108.14-1.1 106.09-2.65 106.09-5.35L106.09-5.35Q106.09-6.6 106.49-7.75L106.49-7.75 109.69-17.65Q109.94-18.5 109.94-19L109.94-19Q109.94-20 109.47-20.7 108.99-21.4 108.14-22.15L108.14-22.15Q107.39-22.85 107.09-23.33 106.79-23.8 106.94-24.45L106.94-24.45Q107.14-25.1 107.79-25.45 108.44-25.8 109.84-25.8L109.84-25.8 112.64-25.8 115.79-28.95Q117.44-30.6 118.82-31.25 120.19-31.9 122.39-31.9L122.39-31.9Q125.54-31.9 125.54-29.5L125.54-29.5Q125.54-28.75 125.34-28.1L125.34-28.1 124.64-25.8 127.29-25.8ZM144.29-26.45Q150.04-26.45 153.49-24.33 156.94-22.2 156.94-17.85L156.94-17.85Q156.94-16.2 156.34-14.1L156.34-14.1 154.29-7.2Q154.24-7 154.24-6.7L154.24-6.7Q154.24-5.9 154.89-5.9L154.89-5.9Q155.49-5.9 155.92-6.43 156.34-6.95 156.49-6.95L156.49-6.95Q156.74-6.95 156.92-6.6 157.09-6.25 157.09-5.8L157.09-5.8Q157.14-4.45 156.07-3.05 154.99-1.65 153.19-0.75 151.39 0.15 149.24 0.15L149.24 0.15Q146.64 0.15 144.79-0.8 142.94-1.75 142.24-3.6L142.24-3.6Q140.74-1.8 138.69-0.83 136.64 0.15 134.29 0.15L134.29 0.15Q131.64 0.15 129.84-0.88 128.04-1.9 127.17-3.53 126.29-5.15 126.29-6.95L126.29-6.95Q126.29-7.75 126.44-8.5L126.44-8.5Q127.24-11.95 129.92-13.7 132.59-15.45 136.29-15.45L136.29-15.45Q140.44-15.45 144.44-14.15L144.44-14.15 145.69-17.45Q146.34-19.55 146.34-20.7L146.34-20.7Q146.29-21.9 145.54-22.5 144.79-23.1 143.24-23.1L143.24-23.1Q143.54-22.3 143.54-21.45L143.54-21.45Q143.54-19.6 142.14-18.25 140.74-16.9 138.14-16.9L138.14-16.9Q135.69-16.9 134.32-17.98 132.94-19.05 132.94-20.65L132.94-20.65Q132.94-23.15 135.74-24.8 138.54-26.45 144.29-26.45L144.29-26.45ZM141.49-11.3Q140.09-11.3 139.22-10.23 138.34-9.15 138.34-7.9L138.34-7.9Q138.34-7.1 138.72-6.6 139.09-6.1 139.79-6.1L139.79-6.1Q140.44-6.1 141.22-6.63 141.99-7.15 142.34-8.2L142.34-8.2 143.39-11.15Q142.54-11.3 141.49-11.3L141.49-11.3ZM181.49-25.8Q182.44-25.8 182.96-25.4 183.49-25 183.49-24.3L183.49-24.3Q183.49-24.1 183.39-23.6L183.39-23.6Q182.74-21.4 180.39-21.4L180.39-21.4 177.49-21.4 173.74-9.05Q173.49-8.3 173.49-7.5L173.49-7.5Q173.49-6.6 173.99-6.25 174.49-5.9 175.39-5.9L175.39-5.9Q176.19-5.9 177.39-6.1L177.39-6.1Q177.99-6.25 178.44-6.25L178.44-6.25Q178.79-6.25 178.96-6.03 179.14-5.8 179.14-5.45L179.14-5.45Q179.19-4.45 177.66-3.03 176.14-1.6 173.54-0.58 170.94 0.45 167.79 0.45L167.79 0.45Q164.39 0.45 162.34-1.1 160.29-2.65 160.29-5.35L160.29-5.35Q160.29-6.6 160.69-7.75L160.69-7.75 163.89-17.65Q164.14-18.5 164.14-19L164.14-19Q164.14-20 163.66-20.7 163.19-21.4 162.34-22.15L162.34-22.15Q161.59-22.85 161.29-23.33 160.99-23.8 161.14-24.45L161.14-24.45Q161.34-25.1 161.99-25.45 162.64-25.8 164.04-25.8L164.04-25.8 166.84-25.8 169.99-28.95Q171.64-30.6 173.01-31.25 174.39-31.9 176.59-31.9L176.59-31.9Q179.74-31.9 179.74-29.5L179.74-29.5Q179.74-28.75 179.54-28.1L179.54-28.1 178.84-25.8 181.49-25.8ZM197.59-26.7Q203.94-26.7 206.79-24.68 209.64-22.65 209.64-19.5L209.64-19.5Q209.64-18.55 209.44-17.75L209.44-17.75Q208.69-14.45 205.26-13.03 201.84-11.6 197.19-11.6L197.19-11.6Q194.84-11.6 192.79-11.9L192.79-11.9Q192.74-9.3 194.19-8.25 195.64-7.2 198.24-7.2L198.24-7.2Q199.44-7.2 200.54-7.48 201.64-7.75 203.34-8.3L203.34-8.3Q204.74-8.8 205.24-8.8L205.24-8.8Q205.79-8.8 205.79-8.15L205.79-8.15Q205.84-6.4 204.49-4.48 203.14-2.55 200.49-1.2 197.84 0.15 194.09 0.15L194.09 0.15Q188.54 0.15 184.99-2.65 181.44-5.45 181.44-10.8L181.44-10.8Q181.44-12.3 181.84-14.3L181.84-14.3Q183.09-20.45 187.31-23.58 191.54-26.7 197.59-26.7L197.59-26.7ZM193.14-14.9Q193.34-14.85 193.69-14.85L193.69-14.85Q195.79-14.85 196.89-16.8 197.99-18.75 197.94-21.15L197.94-21.15Q197.89-22.55 197.14-22.55L197.14-22.55Q196.59-22.55 195.84-21.68 195.09-20.8 194.36-19.05 193.64-17.3 193.14-14.9L193.14-14.9ZM226.78-26.7Q229.83-26.7 232.13-25.83 234.43-24.95 235.71-23.43 236.98-21.9 236.98-20.05L236.98-20.05Q236.98-18.05 235.61-16.75 234.23-15.45 231.88-15.45L231.88-15.45Q229.48-15.45 228.13-16.68 226.78-17.9 226.78-20L226.78-20Q226.78-21 227.08-22.1L227.08-22.1Q224.98-21.55 223.36-19.93 221.73-18.3 221.18-15.65L221.18-15.65Q220.88-14.15 220.88-12.95L220.88-12.95Q220.88-10.25 222.38-8.85 223.88-7.45 226.68-7.45L226.68-7.45Q228.28-7.45 229.43-7.78 230.58-8.1 231.78-8.65L231.78-8.65Q232.78-9.15 233.23-9.15L233.23-9.15Q233.53-9.15 233.63-9.03 233.73-8.9 233.73-8.5L233.73-8.5Q233.78-6.65 232.21-4.63 230.63-2.6 227.86-1.23 225.08 0.15 221.63 0.15L221.63 0.15Q218.03 0.15 215.26-1.18 212.48-2.5 210.96-4.98 209.43-7.45 209.43-10.75L209.43-10.75Q209.43-12.3 209.83-14.2L209.83-14.2Q211.18-20.4 215.81-23.55 220.43-26.7 226.78-26.7L226.78-26.7ZM269.43-16.75L266.38-6.9Q266.28-6.7 266.28-6.3L266.28-6.3Q266.28-5.95 266.46-5.75 266.63-5.55 266.93-5.55L266.93-5.55Q267.53-5.55 267.96-6.08 268.38-6.6 268.53-6.6L268.53-6.6Q268.78-6.6 268.93-6.28 269.08-5.95 269.08-5.5L269.08-5.5Q269.13-4.05 268.13-2.68 267.13-1.3 265.21-0.43 263.28 0.45 260.58 0.45L260.58 0.45Q257.28 0.45 255.33-1.07 253.38-2.6 253.33-5.15L253.33-5.15Q253.33-7 254.23-9.3L254.23-9.3 256.98-16.5Q257.23-17.15 257.23-17.55L257.23-17.55Q257.23-18.2 256.81-18.57 256.38-18.95 255.78-18.95L255.78-18.95Q254.83-18.95 253.86-18.07 252.88-17.2 252.28-15.25L252.28-15.25 252.28-15.35 249.13-5.2Q248.98-4.6 248.98-4.15L248.98-4.15Q248.98-3.5 249.23-3.13 249.48-2.75 249.93-2.4L249.93-2.4Q250.28-2.05 250.43-1.83 250.58-1.6 250.48-1.25L250.48-1.25Q250.23-0.6 249.48-0.3 248.73 0 247.18 0L247.18 0 235.78 0Q234.48 0 233.88-0.43 233.28-0.85 233.48-1.55L233.48-1.55Q233.68-2.15 234.53-2.6L234.53-2.6Q235.28-3 235.78-3.55 236.28-4.1 236.63-5.3L236.63-5.3 244.23-30.25Q244.38-30.7 244.38-31L244.38-31Q244.38-31.55 244.11-31.9 243.83-32.25 243.38-32.6L243.38-32.6Q242.88-33 242.66-33.3 242.43-33.6 242.58-34.1L242.58-34.1Q242.88-35.25 245.73-36.1 248.58-36.95 251.68-36.95L251.68-36.95Q254.58-36.95 255.96-35.85 257.33-34.75 257.33-32.85L257.33-32.85Q257.33-31.75 256.98-30.7L256.98-30.7 254.28-21.9Q256.23-24.45 258.41-25.45 260.58-26.45 263.13-26.45L263.13-26.45Q266.18-26.45 268.06-24.6 269.93-22.75 269.93-19.8L269.93-19.8Q269.93-18.25 269.43-16.75L269.43-16.75ZM277.18-10.1Q279.18-10.1 280.55-8.75 281.93-7.4 281.93-5.45L281.93-5.45Q281.93-4.1 281.2-2.8 280.48-1.5 279.2-0.68 277.93 0.15 276.33 0.15L276.33 0.15Q274.38 0.15 273.03-1.2 271.68-2.55 271.63-4.5L271.63-4.5Q271.63-5.85 272.33-7.15 273.03-8.45 274.3-9.28 275.58-10.1 277.18-10.1L277.18-10.1ZM314.03-7.2Q313.93-6.8 313.93-6.65L313.93-6.65Q313.93-6.3 314.13-6.1 314.33-5.9 314.63-5.9L314.63-5.9Q315.23-5.9 315.65-6.43 316.08-6.95 316.23-6.95L316.23-6.95Q316.48-6.95 316.63-6.6 316.78-6.25 316.78-5.8L316.78-5.8Q316.83-4.45 315.75-3.05 314.68-1.65 312.88-0.75 311.08 0.15 308.98 0.15L308.98 0.15Q306.48 0.15 304.63-0.8 302.78-1.75 302.08-3.3L302.08-3.3Q300.73-1.55 298.98-0.7 297.23 0.15 295.28 0.15L295.28 0.15Q292.98 0.15 291-1 289.03-2.15 287.85-4.28 286.68-6.4 286.68-9.1L286.68-9.1Q286.68-13.65 288.4-17.68 290.13-21.7 293.23-24.18 296.33-26.65 300.28-26.65L300.28-26.65Q302.43-26.65 303.95-26.15 305.48-25.65 306.73-24.65L306.73-24.65 308.43-30.25Q308.58-30.7 308.58-31L308.58-31Q308.58-31.55 308.3-31.9 308.03-32.25 307.58-32.6L307.58-32.6Q307.08-33 306.85-33.3 306.63-33.6 306.78-34.1L306.78-34.1Q307.08-35.25 309.93-36.1 312.78-36.95 315.88-36.95L315.88-36.95Q318.78-36.95 320.15-35.85 321.53-34.75 321.53-32.85L321.53-32.85Q321.53-31.75 321.18-30.7L321.18-30.7 314.03-7.2ZM305.68-21.25Q304.88-21.95 303.93-21.95L303.93-21.95Q302.48-21.95 301.08-19.8 299.68-17.65 298.83-14.6 297.98-11.55 298.03-9.1L298.03-9.1Q298.03-6.35 299.83-6.35L299.83-6.35Q300.48-6.35 300.93-6.88 301.38-7.4 301.78-8.6L301.78-8.6 305.68-21.25ZM331.77-26.7Q338.12-26.7 340.97-24.68 343.82-22.65 343.82-19.5L343.82-19.5Q343.82-18.55 343.62-17.75L343.62-17.75Q342.87-14.45 339.45-13.03 336.02-11.6 331.37-11.6L331.37-11.6Q329.02-11.6 326.97-11.9L326.97-11.9Q326.92-9.3 328.37-8.25 329.82-7.2 332.42-7.2L332.42-7.2Q333.62-7.2 334.72-7.48 335.82-7.75 337.52-8.3L337.52-8.3Q338.92-8.8 339.42-8.8L339.42-8.8Q339.97-8.8 339.97-8.15L339.97-8.15Q340.02-6.4 338.67-4.48 337.32-2.55 334.67-1.2 332.02 0.15 328.27 0.15L328.27 0.15Q322.72 0.15 319.17-2.65 315.62-5.45 315.62-10.8L315.62-10.8Q315.62-12.3 316.02-14.3L316.02-14.3Q317.27-20.45 321.5-23.58 325.72-26.7 331.77-26.7L331.77-26.7ZM327.32-14.9Q327.52-14.85 327.87-14.85L327.87-14.85Q329.97-14.85 331.07-16.8 332.17-18.75 332.12-21.15L332.12-21.15Q332.07-22.55 331.32-22.55L331.32-22.55Q330.77-22.55 330.02-21.68 329.27-20.8 328.55-19.05 327.82-17.3 327.32-14.9L327.32-14.9ZM367.22-26.45Q369.87-26.45 371.62-24.55 373.37-22.65 373.37-19.35L373.37-19.35Q373.37-14.9 370.27-10.25 367.17-5.6 362.42-2.58 357.67 0.45 353.17 0.45L353.17 0.45Q348.87 0.45 346.2-1.3 343.52-3.05 343.52-6.3L343.52-6.3Q343.52-7.5 343.97-9L343.97-9 347.12-19.75Q347.22-20.15 347.22-20.35L347.22-20.35Q347.22-20.85 346.97-21.2 346.72-21.55 346.27-21.95L346.27-21.95Q345.52-22.6 345.52-23.1L345.52-23.1Q345.47-23.8 346.37-24.6 347.27-25.4 348.9-25.93 350.52-26.45 352.57-26.45L352.57-26.45Q355.92-26.45 357.8-24.83 359.67-23.2 359.67-20.6L359.67-20.6Q359.67-19.45 359.27-18.1L359.27-18.1 356.02-7.4Q355.87-6.95 355.87-6.65L355.87-6.65Q355.87-6 356.32-5.65 356.77-5.3 357.57-5.3L357.57-5.3Q358.67-5.3 360.15-6.28 361.62-7.25 363.07-9.08 364.52-10.9 365.42-13.4L365.42-13.4Q363.42-15.15 362.6-16.85 361.77-18.55 361.77-20.35L361.77-20.35Q361.77-22.9 363.17-24.68 364.57-26.45 367.22-26.45L367.22-26.45Z" opacity="1" transform="matrix(1,0,0,1,0,0)" fill="#ffffff" class="wordmark-text-0" data-fill-palette-color="primary" id="text-0"></path></svg></g></svg></g></svg></g></svg></g><g></g></svg></g></svg></g></svg></g><g mask="url(#f4bafa82-7542-4433-b0a9-ccc0662aa410)"><g transform="matrix(2.476781241238562, 0, 0, 2.476781241238562, 82.05477979643544, 1)"><svg xmlns="http://www.w3.org/2000/svg" xmlns:xlink="http://www.w3.org/1999/xlink" version="1.1" baseProfile="tiny" x="0" y="0" viewBox="3.2840745016431585 0.49954218862582234 93.43192549835685 98.99945781137419" overflow="scroll" xml:space="preserve" height="98.99945781137419" width="93.43192549835685" class="icon-none" data-fill-palette-color="accent" id="none"><path d="M70.536 58.215c-4.317 0-7.816 3.499-7.816 7.813 0 4.316 3.499 7.812 7.816 7.812 4.313 0 7.813-3.495 7.813-7.812C78.35 61.714 74.85 58.215 70.536 58.215zM70.536 70.439c-2.436 0-4.411-1.977-4.411-4.412 0-2.437 1.976-4.406 4.411-4.406 2.432 0 4.407 1.97 4.407 4.406C74.943 68.463 72.968 70.439 70.536 70.439zM70.536 39.848c-14.461 0-26.181 11.723-26.181 26.18 0 14.461 11.72 26.179 26.181 26.179 14.458 0 26.18-11.718 26.18-26.179C96.716 51.57 84.994 39.848 70.536 39.848zM45.381 70.357l15.15-2.608c0.146 0.831 0.385 1.626 0.718 2.371l-14.071 6.2C46.349 74.438 45.737 72.443 45.381 70.357zM70.536 91.552c-7.943 0-15.054-3.646-19.735-9.355l11.886-9.736c1.861 2.269 4.688 3.719 7.85 3.719V91.552zM70.536 75.581c-5.279 0-9.559-4.273-9.559-9.554 0-5.275 4.279-9.554 9.559-9.554 5.276 0 9.555 4.278 9.555 9.554C80.091 71.308 75.813 75.581 70.536 75.581zM58.719 89.393l-37.586 8.979v-69.71l6.649 7.341c0.095 0.104 0.229 0.162 0.368 0.162 0.022 0 0.042-0.001 0.064-0.004l48.322-6.24v10.621c0.336 0.077 0.669 0.162 0.996 0.253V29.791l8.606-1.111c0.199-0.024 0.362-0.167 0.418-0.36 0.052-0.193-0.016-0.4-0.171-0.524l-8.816-6.951 6.102-15.282c0.05-0.135 0.042-0.286-0.022-0.414-0.065-0.127-0.185-0.22-0.328-0.255L66.4 0.846c-0.214-0.053-0.439 0.047-0.549 0.242l-6.57 11.826-1.86-11.992c-0.037-0.263-0.28-0.446-0.541-0.42L6.461 5.805C6.312 5.82 6.179 5.902 6.096 6.028 6.014 6.152 5.994 6.308 6.04 6.451l1.011 3.176-3.08-1.259c-0.183-0.074-0.39-0.035-0.532 0.1C3.296 8.604 3.247 8.809 3.313 8.994l4.383 12.373v68.145c0 0.158 0.074 0.303 0.197 0.396l12.337 9.376c0.027 0.042 0.06 0.075 0.098 0.108 0.088 0.067 0.198 0.107 0.31 0.107 0.038 0 0.076-0.005 0.114-0.015l39.415-9.416C59.676 89.862 59.193 89.636 58.719 89.393zM66.538 1.901l15.99 3.826L76.75 20.209l-17.038-6.014L66.538 1.901zM59.486 15.172l15.002 5.293-15.002 1.87V15.172zM76.44 21.224l8.399 6.62L28.344 35.14l-6.088-6.722 36.794-5.025L76.44 21.224zM4.623 9.71l10.443 4.271 4.66 13.087L8.602 20.936 4.623 9.71zM20.138 97.967L8.693 89.268V22.124l11.445 6.306V97.967zM17.928 19.048l-2-5.609c-0.047-0.135-0.15-0.24-0.28-0.293l-7.397-3.028L7.172 6.73l49.341-5.187 1.905 12.296L17.928 19.048zM17.246 39.61c0.234 0.143 0.307 0.451 0.164 0.685-0.094 0.154-0.256 0.238-0.425 0.238-0.088 0-0.177-0.025-0.259-0.075l-6.253-3.82c-0.234-0.144-0.31-0.448-0.167-0.682 0.144-0.237 0.451-0.31 0.685-0.167L17.246 39.61zM10.309 31.183c0.145-0.232 0.453-0.302 0.686-0.157l6.786 4.218c0.233 0.145 0.303 0.453 0.158 0.686-0.094 0.152-0.255 0.235-0.422 0.235-0.089 0-0.18-0.023-0.261-0.074l-6.786-4.222C10.236 31.724 10.164 31.418 10.309 31.183zM28.207 52.795l22.941-4.362c-0.354 0.392-0.697 0.797-1.029 1.209l-21.321 4.056v5.849C35 59.512 39.875 62.71 44.362 66.56c0.123 6.265 2.449 11.992 6.235 16.437l-22.206 4.22c-0.03 0.006-0.063 0.009-0.093 0.009-0.116 0-0.227-0.042-0.316-0.115-0.116-0.095-0.183-0.236-0.183-0.383V53.284C27.801 53.045 27.972 52.843 28.207 52.795zM10.3 81.257c0.137-0.242 0.439-0.324 0.678-0.186l6.254 3.565c0.239 0.133 0.321 0.438 0.186 0.68-0.091 0.158-0.259 0.249-0.433 0.249-0.083 0-0.167-0.023-0.247-0.063l-6.252-3.566C10.248 81.797 10.163 81.491 10.3 81.257zM9.925 51.981l7.333 4.463c0.08 0.052 0.169 0.077 0.258 0.077 0.083 0 0.169-0.021 0.244-0.067 0.158-0.088 0.255-0.252 0.255-0.432V44.974c0-0.175-0.093-0.34-0.245-0.429l-7.332-4.321c-0.154-0.09-0.344-0.092-0.5-0.004-0.156 0.09-0.251 0.254-0.251 0.433v10.908C9.687 51.732 9.777 51.892 9.925 51.981zM10.683 41.522l6.336 3.735v9.879l-6.336-3.856V41.522zM17.404 90.379c-0.096 0.15-0.254 0.229-0.419 0.229-0.092 0-0.186-0.027-0.268-0.078l-6.255-4.042c-0.23-0.149-0.297-0.459-0.148-0.686 0.149-0.233 0.459-0.298 0.688-0.151l6.254 4.039C17.488 89.843 17.553 90.152 17.404 90.379z" fill="#ffffff" data-fill-palette-color="accent"></path></svg></g></g></svg></g><defs></defs></svg><rect width="395.52" height="247.2" fill="none" stroke="none" visibility="hidden"></rect></g></svg></g></svg>