<svg xmlns="http://www.w3.org/2000/svg" version="1.1" xmlns:xlink="http://www.w3.org/1999/xlink" xmlns:svgjs="http://svgjs.dev/svgjs" width="1500" height="1500" viewBox="0 0 1500 1500"><rect width="1500" height="1500" fill="#000000"></rect><g transform="matrix(0.6666666666666666,0,0,0.6666666666666666,249.39393939393932,565.5883864679487)"><svg viewBox="0 0 396 146" data-background-color="#ffffff" preserveAspectRatio="xMidYMid meet" height="553" width="1500" xmlns="http://www.w3.org/2000/svg" xmlns:xlink="http://www.w3.org/1999/xlink"><g id="tight-bounds" transform="matrix(1,0,0,1,0.24000000000003752,0.03100065735847579)"><svg viewBox="0 0 395.5199999999999 145.93799868528305" height="145.93799868528305" width="395.5199999999999"><g><svg viewBox="0 0 397.4975999999999 146.66768867870945" height="145.93799868528305" width="395.5199999999999"><g><rect width="397.4975999999999" height="4.195535317922265" x="0" y="75.27852425865328" fill="#ffffff" opacity="1" stroke-width="0" stroke="transparent" fill-opacity="1" class="rect-qz-0" data-fill-palette-color="primary" rx="1%" id="qz-0" data-palette-color="#1c4b82"></rect></g><g><rect width="397.4975999999999" height="4.195535317922265" x="0" y="84.96559795081936" fill="#ffffff" opacity="1" stroke-width="0" stroke="transparent" fill-opacity="1" class="rect-qz-1" data-fill-palette-color="primary" rx="1%" id="qz-1" data-palette-color="#1c4b82"></rect></g><g transform="matrix(1,0,0,1,0.9887999999999693,100.14421001722923)"><svg viewBox="0 0 395.52 46.52347866148022" height="46.52347866148022" width="395.52"><g id="textblocktransform"><svg viewBox="0 0 395.52 46.52347866148022" height="46.52347866148022" width="395.52" id="textblock"><g><svg viewBox="0 0 395.52 46.52347866148022" height="46.52347866148022" width="395.52"><g transform="matrix(1,0,0,1,0,0)"><svg width="395.52" viewBox="2.5 -35.5 306.0244921875 36" height="46.52347866148022" data-palette-color="#1c4b82"><path d="M29.9-34.05L29.9-1.1Q29.9-0.05 25.2-0.05 20.5-0.05 20.1-0.8L20.1-0.8 11.75-16.4 11.75-0.85Q11.75 0.05 7.13 0.05 2.5 0.05 2.5-0.85L2.5-0.85 2.5-34.3Q2.5-35.05 6.45-35.05L6.45-35.05Q8-35.05 10.08-34.77 12.15-34.5 12.6-33.75L12.6-33.75 20.6-18.35 20.6-34.05Q20.6-35 25.25-35 29.9-35 29.9-34.05L29.9-34.05ZM36.82-2.95Q33.7-6.4 33.7-12.5 33.7-18.6 36.82-22.05 39.95-25.5 45.25-25.5 50.55-25.5 53.65-22.05 56.75-18.6 56.75-12.5 56.75-6.4 53.65-2.95 50.55 0.5 45.25 0.5 39.95 0.5 36.82-2.95ZM45.27-17.15Q42.45-17.15 42.45-12.55 42.45-7.95 45.27-7.95 48.1-7.95 48.1-12.55 48.1-17.15 45.27-17.15ZM70.75-16.35L70.75-0.3Q70.75 0.05 67.14 0.05L67.14 0.05Q62.15-0.1 62.15-0.5L62.15-0.5 62.15-16.7 60.84-16.7Q59.55-16.7 59.15-18.9L59.15-18.9Q59.05-19.55 59.05-20.2L59.05-20.2Q59.05-21.75 59.65-23.3L59.65-23.3Q60.55-25.5 62.45-25.5 64.34-25.5 65.84-24.6 67.34-23.7 67.84-22.8L67.84-22.8Q71-25.5 75.34-25.5 79.7-25.5 81.65-23.15 83.59-20.8 83.59-15.45L83.59-15.45 83.59-0.45Q83.59 0.15 79.32 0.15 75.05 0.15 75.05-0.45L75.05-0.45 75.05-14.9Q75.05-17.4 73.3-17.4L73.3-17.4Q72.8-17.4 71.9-16.98 71-16.55 70.75-16.35L70.75-16.35ZM99.34-18L99.34-0.3Q99.34 0.3 95.14 0.3L95.14 0.3Q90.14 0.1 90.14-0.35L90.14-0.35 90.14-18.05 87.59-18.05Q86.59-18.05 86.59-21.5L86.59-21.5Q86.59-22.4 86.77-23.7 86.94-25 87.49-25L87.49-25 90.14-25 90.14-29.4Q90.14-30.4 94.37-30.4 98.59-30.4 98.59-29.6L98.59-29.6 98.59-26.4 98.64-25 102.89-25Q103.74-25 103.74-21.5 103.74-18 102.89-18L102.89-18 99.34-18ZM109.39-18.15L109.39-18.15Q107.99-20.65 107.99-22.23 107.99-23.8 108.84-24.25L108.84-24.25Q111.69-25.5 116.67-25.5 121.64-25.5 123.69-23.18 125.74-20.85 125.74-16.3L125.74-16.3 125.74-8.4 127.44-8.4Q128.29-8.4 128.77-7.4 129.24-6.4 129.24-4.65 129.24-2.9 128.37-1.2 127.49 0.5 125.99 0.5L125.99 0.5Q123.29 0.5 121.64-0.95L121.64-0.95Q120.89-1.55 120.49-2.4L120.49-2.4Q118.19 0.5 113.34 0.5L113.34 0.5Q109.69 0.5 107.19-2.1 104.69-4.7 104.69-8.25L104.69-8.25Q104.69-16.4 114.44-16.4L114.44-16.4 117.19-16.4 117.19-16.9Q117.19-18.2 116.77-18.57 116.34-18.95 114.79-18.95L114.79-18.95Q112.89-18.95 109.39-18.15ZM113.39-8.95L113.39-8.95Q113.39-7.85 113.99-7.28 114.59-6.7 115.52-6.7 116.44-6.7 117.19-7.45L117.19-7.45 117.19-11.3 115.79-11.3Q113.39-11.3 113.39-8.95ZM143.59-18L143.59-0.3Q143.59 0.3 139.39 0.3L139.39 0.3Q134.39 0.1 134.39-0.35L134.39-0.35 134.39-18.05 131.84-18.05Q130.84-18.05 130.84-21.5L130.84-21.5Q130.84-22.4 131.01-23.7 131.19-25 131.74-25L131.74-25 134.39-25 134.39-29.4Q134.39-30.4 138.61-30.4 142.84-30.4 142.84-29.6L142.84-29.6 142.84-26.4 142.89-25 147.14-25Q147.99-25 147.99-21.5 147.99-18 147.14-18L147.14-18 143.59-18ZM169.39-1.35L169.39-1.35Q166.24 0.5 161.29 0.5 156.34 0.5 152.94-2.88 149.54-6.25 149.54-12.23 149.54-18.2 152.81-21.85 156.09-25.5 161.09-25.5 166.09-25.5 168.81-22.95 171.54-20.4 171.54-16.75L171.54-16.75Q171.54-8.65 162.24-8.65L162.24-8.65 158.79-8.65Q158.79-7.15 159.61-6.58 160.44-6 162.04-6L162.04-6Q165.54-6 168.69-7.6L168.69-7.6Q168.74-7.65 169.14-6.9L169.14-6.9Q170.34-4.75 170.34-3.28 170.34-1.8 169.39-1.35ZM163.14-15.8L163.14-15.8Q163.14-17.9 161.09-17.9L161.09-17.9Q160.14-17.9 159.46-17.32 158.79-16.75 158.79-15.65L158.79-15.65 158.79-14.1 161.49-14.1Q163.14-14.1 163.14-15.8ZM182.98-12.4L182.98-12.4Q182.98-7.5 186.68-7.5L186.68-7.5Q189.08-7.5 190.68-8.45L190.68-8.45Q191.43-8.45 191.91-5.88 192.38-3.3 192.38-2.38 192.38-1.45 192.13-1.15L192.13-1.15Q189.48 0.5 184.88 0.5 180.28 0.5 177.06-2.93 173.83-6.35 173.83-12.28 173.83-18.2 177.01-21.85 180.18-25.5 185.46-25.5 190.73-25.5 192.78-22.95L192.78-22.95Q193.23-22.4 193.23-21.33 193.23-20.25 192.83-18.7L192.83-18.7Q191.93-15.5 190.48-15L190.48-15Q190.28-14.95 189.91-14.95 189.53-14.95 188.98-15.55L188.98-15.55Q187.03-17.5 185.86-17.5 184.68-17.5 183.83-16.3 182.98-15.1 182.98-12.4ZM204.33-16.55L204.33-0.35Q204.33 0.1 200.16 0.1 195.98 0.1 195.98-0.6L195.98-0.6 195.98-34.85Q195.98-35.2 197.53-35.35 199.08-35.5 200.13-35.5L200.13-35.5Q204.33-35.5 204.33-34.6L204.33-34.6 204.33-24.6Q207.13-25.45 208.58-25.45L208.58-25.45Q212.38-25.45 214.58-23.43 216.78-21.4 216.78-15.9L216.78-15.9 216.78-0.4Q216.78 0.05 212.88 0.05L212.88 0.05Q208.48-0.1 208.48-0.45L208.48-0.45 208.48-15.15Q208.48-17.6 206.88-17.6L206.88-17.6Q205.78-17.6 204.33-16.55L204.33-16.55ZM229.23-9L229.23 0.15Q229.23 0.5 224.5 0.5 219.78 0.5 219.78 0.2L219.78 0.2 219.78-8.8Q219.78-9.25 224.5-9.25 229.23-9.25 229.23-9L229.23-9ZM245.13-25.2L245.13-34.7Q245.13-35.45 249.08-35.45L249.08-35.45Q250.43-35.45 252.2-35.27 253.98-35.1 253.98-34.8L253.98-34.8 253.98-8.45 255.73-8.45Q256.98-8.45 257.38-6.2L257.38-6.2Q257.48-5.55 257.48-4.42 257.48-3.3 256.78-1.7L256.78-1.7Q255.78 0.5 253.58 0.5L253.58 0.5Q251.93 0.5 250.65-0.15 249.38-0.8 248.93-1.5L248.93-1.5 248.48-2.15Q245.73 0.5 241.58 0.5 237.43 0.5 234.48-2.95 231.53-6.4 231.53-12.58 231.53-18.75 234.63-22.13 237.73-25.5 242.38-25.5L242.38-25.5Q243.73-25.5 245.13-25.2L245.13-25.2ZM243.48-17.5L243.48-17.5Q240.68-17.5 240.68-12.45L240.68-12.45Q240.68-9.9 241.48-8.78 242.28-7.65 243.25-7.65 244.23-7.65 245.13-8.5L245.13-8.5 245.13-17Q244.28-17.5 243.48-17.5ZM279.62-1.35L279.62-1.35Q276.47 0.5 271.52 0.5 266.57 0.5 263.17-2.88 259.77-6.25 259.77-12.23 259.77-18.2 263.05-21.85 266.32-25.5 271.32-25.5 276.32-25.5 279.05-22.95 281.77-20.4 281.77-16.75L281.77-16.75Q281.77-8.65 272.47-8.65L272.47-8.65 269.02-8.65Q269.02-7.15 269.85-6.58 270.67-6 272.27-6L272.27-6Q275.77-6 278.92-7.6L278.92-7.6Q278.97-7.65 279.37-6.9L279.37-6.9Q280.57-4.75 280.57-3.28 280.57-1.8 279.62-1.35ZM273.37-15.8L273.37-15.8Q273.37-17.9 271.32-17.9L271.32-17.9Q270.37-17.9 269.7-17.32 269.02-16.75 269.02-15.65L269.02-15.65 269.02-14.1 271.72-14.1Q273.37-14.1 273.37-15.8ZM289.52-0.6L283.07-24.85Q282.92-25.25 287.75-25.25 292.57-25.25 292.57-25L292.57-25 296.17-8 298.87-24.75Q299.02-25.2 303.82-25.2L303.82-25.2Q308.67-25.2 308.52-24.8L308.52-24.8 301.47-0.35Q301.12 0.15 295.52 0.15 289.92 0.15 289.52-0.6L289.52-0.6Z" opacity="1" transform="matrix(1,0,0,1,0,0)" fill="#ffffff" class="wordmark-text-0" data-fill-palette-color="primary" id="text-0"></path></svg></g></svg></g></svg></g></svg></g><g transform="matrix(1,0,0,1,165.42971885103293,0)"><svg viewBox="0 0 66.63816229793406 64.29544751016567" height="64.29544751016567" width="66.63816229793406"><g><svg xmlns="http://www.w3.org/2000/svg" xmlns:xlink="http://www.w3.org/1999/xlink" version="1.1" x="0" y="0" viewBox="5.840426051556689 7.385000000000012 88.33757394844332 85.232" enable-background="new 0 0 100 100" xml:space="preserve" height="64.29544751016567" width="66.63816229793406" class="icon-icon-0" data-fill-palette-color="accent" id="icon-0"><g fill="#1c4b82" data-fill-palette-color="accent"><path d="M49.595 60.478c-3.969 0-7.561-1.712-10.678-5.089-0.318-0.345-0.297-0.883 0.048-1.201 0.346-0.317 0.883-0.297 1.201 0.049 2.782 3.014 5.954 4.542 9.429 4.542 3.945 0 7.224-2.566 9.281-4.719 0.325-0.34 0.862-0.352 1.202-0.027 0.339 0.324 0.352 0.862 0.027 1.201C56.827 58.664 53.193 60.478 49.595 60.478z" fill="#ffffff" data-fill-palette-color="accent"></path><path d="M31.855 36.018c-0.435 0-0.806-0.332-0.846-0.774-0.042-0.467 0.303-0.88 0.771-0.922l1.196-0.106c0.514-1.166 1.879-4.337 2.534-6.535 1.345-4.516 1.169-6.906 1.167-6.931-0.03-0.363 0.176-0.706 0.51-0.851 0.336-0.144 0.725-0.062 0.969 0.21 0.049 0.055 4.966 5.405 11.725 4.467 2.284-0.318 5.496-2.277 7.841-3.707 2.687-1.638 3.693-2.252 4.399-1.391 2.681 3.271 3.703 11.243 3.964 13.745l0.976 0.04c0.469 0.02 0.834 0.415 0.814 0.885-0.019 0.469-0.425 0.82-0.884 0.814l-1.717-0.07c-0.429-0.018-0.777-0.353-0.813-0.78-0.008-0.098-0.805-9.511-3.393-13.208-0.543 0.246-1.59 0.885-2.462 1.416-2.472 1.508-5.858 3.572-8.491 3.939-5.449 0.758-9.715-1.962-11.811-3.693-0.125 1.27-0.435 3.144-1.167 5.6-0.844 2.836-2.735 7.025-2.815 7.202-0.126 0.279-0.394 0.469-0.699 0.496l-1.694 0.151C31.906 36.017 31.881 36.018 31.855 36.018z" fill="#ffffff" data-fill-palette-color="accent"></path><path d="M21.131 84.761c-0.388 0-0.739-0.269-0.828-0.663l-2.687-11.873c-0.057-0.252 0.004-0.517 0.165-0.718 0.161-0.202 0.406-0.319 0.664-0.319h62.76c0.258 0 0.503 0.117 0.664 0.319 0.161 0.201 0.222 0.466 0.165 0.718l-2.685 11.863c-0.104 0.458-0.565 0.746-1.017 0.642-0.458-0.104-0.745-0.559-0.642-1.017l2.45-10.826H19.509l2.452 10.836c0.104 0.458-0.184 0.913-0.642 1.017C21.257 84.754 21.194 84.761 21.131 84.761z" fill="#ffffff" data-fill-palette-color="accent"></path><path d="M77.247 92.617H22.403c-0.693 0-1.295-0.475-1.458-1.148l-1.461-6.052H7.341c-0.46 0-0.895-0.211-1.18-0.573-0.284-0.362-0.387-0.835-0.278-1.282 1.217-4.992 4.242-16.793 6.037-18.541 0.771-0.751 9.218-4.164 25.113-10.147-3.276-4.292-4.821-9.209-5.37-11.303-1.335-1.242-2.326-3.582-2.332-5.646-0.004-1.497 0.49-2.807 1.41-3.787-0.865-2.449-3.006-8.719 0.436-16.355 2.5-5.548 5.426-8.36 8.696-8.36 2.03 0 3.638 1.122 4.621 2.051 1.94-1.468 6.049-4.089 10.65-4.089 3.752 0 9.002 1.809 12.708 10.422 1.393 3.237 1.026 9.424 0.784 13.518-0.052 0.875-0.109 1.84-0.115 2.372 1.029 1.099 1.555 2.648 1.491 4.437-0.075 2.078-0.932 4.223-2.104 5.385-0.808 3.128-2.824 7.454-5.815 11.154 7.827 2.683 24.824 8.623 26.666 10.241 1.908 1.676 4.139 12.194 5.329 18.491 0.059 0.161 0.09 0.334 0.09 0.515 0 0.828-0.671 1.5-1.5 1.5-0.007 0-0.013 0-0.02 0H80.166l-1.461 6.053C78.542 92.143 77.939 92.617 77.247 92.617zM23.584 89.617h52.481l1.461-6.053c0.163-0.673 0.765-1.147 1.458-1.147h11.857c-1.361-6.876-3.201-14.244-4.098-15.286-1.354-1.046-15.314-6.122-27.737-10.345-0.485-0.165-0.852-0.565-0.974-1.063-0.122-0.498 0.019-1.023 0.373-1.394 3.589-3.757 5.987-8.836 6.696-11.964 0.082-0.359 0.292-0.677 0.592-0.891 0.441-0.314 1.26-1.736 1.321-3.452 0.027-0.769-0.101-1.817-0.867-2.451-0.732-0.605-0.698-1.189-0.506-4.428 0.198-3.345 0.567-9.57-0.545-12.154-2.457-5.711-5.806-8.607-9.953-8.607-5.1 0-9.749 4.217-9.795 4.259-0.319 0.293-0.746 0.433-1.18 0.387-0.431-0.048-0.82-0.279-1.067-0.636-0.01-0.014-1.42-1.972-3.229-1.972-1.928 0-4.045 2.342-5.961 6.593-2.99 6.635-1.044 12.14-0.311 14.213 0.309 0.872 0.692 1.958-0.32 2.662-0.643 0.445-0.953 1.107-0.95 2.026 0.004 1.527 0.914 3.161 1.513 3.571 0.307 0.21 0.524 0.526 0.611 0.888 0.415 1.726 2.089 7.701 6.188 12.141 0.339 0.367 0.473 0.878 0.357 1.364-0.115 0.485-0.465 0.882-0.933 1.058-9.238 3.468-24.286 9.25-26.098 10.289-0.858 1.18-2.997 8.402-4.711 15.191h11.406c0.693 0 1.295 0.475 1.458 1.148L23.584 89.617z" fill="#ffffff" data-fill-palette-color="accent"></path></g></svg></g></svg></g><g></g></svg></g><defs></defs></svg><rect width="395.5199999999999" height="145.93799868528305" fill="none" stroke="none" visibility="hidden"></rect></g></svg></g></svg>